<?xml version="1.0" encoding="UTF-8"?>
<svg width="711px" height="207px" viewBox="0 0 711 207" version="1.1" xmlns="http://www.w3.org/2000/svg" xmlns:xlink="http://www.w3.org/1999/xlink">
    <!-- Generator: Sketch 42 (36781) - http://www.bohemiancoding.com/sketch -->
    <title>Group 3 Copy 2</title>
    <desc>Created with Sketch.</desc>
    <defs></defs>
    <g id="Page-1" stroke="none" stroke-width="1" fill="none" fill-rule="evenodd">
        <g id="Group-3-Copy-2" transform="translate(0.000000, 3.000000)">
            <g id="Group" transform="translate(243.000000, 16.000000)" stroke-width="5">
                <path d="M0.5,0.5 L73.5,52.5" id="Line" stroke="#DFDFDF" stroke-linecap="square"></path>
                <path d="M283.5,0.5 L356.5,52.5" id="Line" stroke="#DFDFDF" stroke-linecap="square" transform="translate(320.000000, 26.500000) scale(-1, 1) translate(-320.000000, -26.500000) "></path>
                <g id="Group-2" transform="translate(64.000000, 45.000000)">
                    <path d="M13.5,11.5 L144.5,11.5" id="Line-Copy" stroke="#DFDFDF" stroke-linecap="square"></path>
                    <path d="M166.5,11.5 L199.5,11.5" id="Line-Copy-4" stroke="#DFDFDF" stroke-linecap="square"></path>
                    <circle id="Oval" stroke="#DEDEDE" fill="#FFFFFF" cx="12" cy="12" r="12"></circle>
                    <circle id="Oval" stroke="#84D382" fill="#FFFFFF" cx="103" cy="12" r="12"></circle>
                </g>
            </g>
            <path d="M140.485746,12.5 L701.757059,12.5" id="Line" stroke="#DEDEDE" stroke-width="5" stroke-linecap="square"></path>
            <path id="Line-decoration-1" d="M701.757059,12.5 L690.957059,9.5 L690.957059,15.5 L701.757059,12.5 Z" stroke="#DEDEDE" stroke-width="5" stroke-linecap="square"></path>
            <path d="M517.5,169.5 L517.5,91.9894382" id="Line" stroke="#DEDEDE" stroke-width="5" stroke-linecap="square" transform="translate(517.500000, 130.500000) scale(1, -1) translate(-517.500000, -130.500000) "></path>
            <path id="Line-decoration-1" d="M517.5,91.9894382 L514.5,102.789438 L520.5,102.789438 L517.5,91.9894382 Z" stroke="#DEDEDE" stroke-width="5" stroke-linecap="square"></path>
            <path d="M451.560192,56.3105255 L451.560192,90.5" id="Line" stroke="#DEDEDE" stroke-width="5" stroke-linecap="square"></path>
            <path d="M472.560192,56.3105255 L472.560192,90.5" id="Line-Copy-2" stroke="#DEDEDE" stroke-width="5" stroke-linecap="square"></path>
            <circle id="Oval" stroke="#DEDEDE" stroke-width="5" fill="#FFFFFF" cx="139" cy="12" r="12"></circle>
            <circle id="Oval" stroke="#DEDEDE" stroke-width="5" fill="#FFFFFF" cx="239" cy="12" r="12"></circle>
            <circle id="Oval" stroke="#DEDEDE" stroke-width="5" fill="#FFFFFF" cx="516" cy="74" r="12"></circle>
            <circle id="Oval" stroke="#DEDEDE" stroke-width="5" fill="#FFFFFF" cx="602" cy="12" r="12"></circle>
            <text id="master" font-family="SanFranciscoText-Regular, San Francisco Text" font-size="16" font-weight="normal" fill="#ADADAD">
                <tspan x="0" y="15">master</tspan>
            </text>
            <text id="QA" font-family="SanFranciscoText-Regular, San Francisco Text" font-size="16" font-weight="normal" fill="#ADADAD">
                <tspan x="507" y="202">QA</tspan>
            </text>
            <text id="feat/issueId-name-of" font-family="SanFranciscoText-Regular, San Francisco Text" font-size="16" font-weight="normal" fill="#ADADAD">
                <tspan x="0" y="79">feat/issueId-name-of-change</tspan>
            </text>
        </g>
    </g>
</svg>